<svg xmlns="http://www.w3.org/2000/svg" width="140" height="38" fill="none"><g clip-path="url(#a)"><path fill="#9C9C9C" d="M11.394 20.737v5.086c0 2.543-1.12 3.46-2.9 3.46-1.78 0-2.899-.917-2.899-3.46V6.596c0-2.543 1.12-3.51 2.9-3.51 1.78 0 2.899.967 2.899 3.51v3.815h5.29V6.952C16.684 1.255 13.835-2 8.342-2 2.848-2 0 1.255 0 6.952v18.515c0 5.697 2.848 8.953 8.342 8.953 5.493 0 8.342-3.256 8.342-8.953v-4.73h-5.29Zm21.109-22.33L38.2 34.013h-5.646l-.967-6.46h-6.866l-.967 6.46h-5.137l5.697-35.606h8.189Zm-4.425 6.307-2.645 18.007h5.391L28.18 4.713h-.101l-.001.001ZM58.19 34.013h-5.697c-.305-.916-.509-1.476-.509-4.375v-5.595c0-3.306-1.119-4.527-3.662-4.527h-1.933v14.497h-5.595V-1.593h8.444c5.798 0 8.29 2.696 8.29 8.19v2.797c0 3.662-1.17 6.002-3.662 7.172 2.798 1.271 3.713 3.916 3.713 7.63v5.493c0 1.73.052 3.001.611 4.324Zm-9.105-30.52h-2.696V14.43h2.187c2.086 0 3.357-.915 3.357-3.764v-3.51c0-2.543-.864-3.663-2.848-3.663Zm26.157-5.086 5.697 35.606h-5.646l-.966-6.46H67.46l-.966 6.46h-5.138l5.697-35.606h8.189Zm-4.425 6.307-2.645 18.007h5.392L70.919 4.713h-.102v.001Zm15.298-6.307h-5.646l5.493 35.606h8.342l5.493-35.606H94.66L90.438 27.45h-.102L86.115-1.593Zm27.098 0 5.697 35.606h-5.646l-.966-6.46h-6.867l-.967 6.46h-5.137l5.697-35.606h8.189Zm-4.425 6.307-2.645 18.007h5.392L108.89 4.713h-.102v.001Zm25.464 29.299H140V-1.593h-4.985v21.312h-.102l-5.646-21.312h-7.019v35.606h5.036V8.223h.101l6.867 25.79Z"/></g><defs><clipPath id="a"><path fill="#fff" d="M0 0h140v38H0z"/></clipPath></defs></svg>