<svg xmlns="http://www.w3.org/2000/svg" width="147" height="38" fill="none"><g clip-path="url(#a)"><path fill="#9C9C9C" d="M2.41 30.072c-.728 0-1.318-.252-1.77-.756-.427-.504-.64-1.162-.64-1.974V2.772C0 1.96.2 1.33.602.882 1.03.434 1.606.21 2.334.21h13.214c1.53 0 2.296.728 2.296 2.184 0 1.428-.765 2.142-2.296 2.142H4.78V12.6h10.014c1.531 0 2.296.728 2.296 2.184 0 1.428-.765 2.142-2.296 2.142H4.781v10.416c0 .812-.213 1.47-.64 1.974-.427.504-1.004.756-1.732.756Zm22.34 0c-.677 0-1.242-.21-1.693-.63-.427-.448-.64-1.078-.64-1.89V2.478c0-.812.213-1.428.64-1.848C23.508.21 24.073 0 24.75 0c.677 0 1.242.21 1.694.63.451.42.677 1.036.677 1.848v25.074c0 .812-.226 1.442-.677 1.89-.452.42-1.017.63-1.694.63Zm21.794-5.88c.427 0 .766.182 1.017.546.276.364.414.854.414 1.47 0 .868-.464 1.596-1.393 2.184-.853.532-1.82.966-2.899 1.302-1.079.308-2.108.462-3.087.462-2.961 0-5.308-.952-7.04-2.856-1.731-1.904-2.597-4.508-2.597-7.812 0-2.1.376-3.962 1.13-5.586.752-1.624 1.806-2.884 3.161-3.78 1.38-.896 2.937-1.344 4.669-1.344 1.656 0 3.1.406 4.329 1.218 1.23.812 2.183 1.96 2.861 3.444.678 1.484 1.017 3.234 1.017 5.25 0 1.204-.477 1.806-1.431 1.806H35.589c.15 1.932.64 3.36 1.468 4.284.829.896 2.033 1.344 3.614 1.344.804 0 1.506-.112 2.109-.336.627-.224 1.33-.532 2.108-.924.753-.448 1.305-.672 1.656-.672Zm-6.513-11.718c-1.28 0-2.31.448-3.087 1.344-.753.896-1.205 2.184-1.356 3.864h8.508c-.05-1.708-.426-2.996-1.129-3.864-.703-.896-1.681-1.344-2.936-1.344Zm27.538 13.482c.452.504.677 1.078.677 1.722 0 .616-.213 1.176-.64 1.68-.426.476-.928.714-1.505.714-.628 0-1.167-.294-1.62-.882l-5.307-6.552-5.308 6.552c-.477.56-1.017.84-1.62.84-.551 0-1.04-.238-1.467-.714a2.383 2.383 0 0 1-.64-1.638c0-.644.225-1.218.677-1.722l5.497-6.678-5.196-6.3c-.451-.504-.677-1.078-.677-1.722 0-.644.213-1.19.64-1.638.427-.476.916-.714 1.468-.714.602 0 1.142.28 1.619.84l5.007 6.132 5.007-6.132c.477-.56 1.016-.84 1.618-.84.578 0 1.067.238 1.469.714.426.448.64.994.64 1.638 0 .644-.226 1.218-.678 1.722l-5.195 6.3 5.534 6.678Zm20.827-11.424c1.531.476 2.71 1.344 3.54 2.604.852 1.26 1.279 2.8 1.279 4.62 0 2.52-.816 4.494-2.447 5.922-1.606 1.428-3.827 2.142-6.663 2.142h-9.713c-.728 0-1.305-.224-1.732-.672-.401-.448-.602-1.078-.602-1.89V2.772c0-.812.2-1.442.602-1.89.427-.448 1.004-.672 1.732-.672h9.335c2.761 0 4.92.686 6.475 2.058 1.582 1.344 2.372 3.234 2.372 5.67 0 1.568-.376 2.926-1.13 4.074-.727 1.148-1.743 1.988-3.049 2.52h.001Zm-11.595-1.848h6.137c3.338 0 5.007-1.386 5.007-4.158 0-1.4-.415-2.436-1.243-3.108-.828-.672-2.083-1.008-3.764-1.008H76.8v8.274Zm6.777 12.936c1.756 0 3.036-.35 3.84-1.05.803-.7 1.204-1.792 1.204-3.276 0-1.484-.414-2.59-1.242-3.318-.803-.728-2.07-1.092-3.802-1.092H76.8v8.736h6.777Zm16.098 4.452c-.678 0-1.243-.21-1.694-.63-.427-.448-.64-1.078-.64-1.89V2.478c0-.812.213-1.428.64-1.848.451-.42 1.016-.63 1.694-.63.678 0 1.242.21 1.694.63.452.42.678 1.036.678 1.848v25.074c0 .812-.226 1.442-.678 1.89-.452.42-1.016.63-1.694.63Zm15.62.084c-1.883 0-3.539-.434-4.97-1.302-1.405-.868-2.497-2.114-3.275-3.738s-1.167-3.514-1.167-5.67.389-4.032 1.167-5.628c.778-1.624 1.87-2.87 3.275-3.738 1.431-.868 3.087-1.302 4.97-1.302 1.882 0 3.526.434 4.931 1.302 1.409.843 2.552 2.148 3.275 3.738.778 1.596 1.167 3.472 1.167 5.628s-.389 4.046-1.167 5.67c-.723 1.59-1.866 2.895-3.275 3.738-1.405.868-3.049 1.302-4.931 1.302Zm-.038-4.074c1.531 0 2.698-.56 3.501-1.68.803-1.12 1.205-2.772 1.205-4.956 0-2.156-.402-3.794-1.205-4.914-.803-1.148-1.958-1.722-3.463-1.722-1.506 0-2.673.574-3.502 1.722-.803 1.12-1.204 2.758-1.204 4.914 0 2.184.401 3.836 1.204 4.956.804 1.12 1.958 1.68 3.464 1.68Zm28.882-17.22c.703 0 1.267.224 1.694.672.427.448.64 1.05.64 1.806v16.59c0 3.22-.803 5.656-2.41 7.308-1.606 1.652-3.977 2.478-7.115 2.478-2.735 0-5.019-.574-6.851-1.722-.929-.616-1.393-1.358-1.393-2.226 0-.616.125-1.106.376-1.47.276-.364.628-.546 1.054-.546.226 0 .502.056.829.168.326.14.665.294 1.016.462.904.42 1.707.742 2.409.966.728.224 1.556.336 2.485.336 3.288 0 4.932-1.792 4.932-5.376V25.62c-.552 1.148-1.356 2.044-2.41 2.688-1.054.616-2.258.924-3.614.924-1.606 0-3.037-.42-4.291-1.26-1.23-.868-2.196-2.072-2.899-3.612-.703-1.54-1.054-3.318-1.054-5.334 0-2.016.339-3.794 1.016-5.334.703-1.568 1.682-2.772 2.937-3.612 1.254-.868 2.685-1.302 4.291-1.302 1.356 0 2.56.322 3.614.966 1.027.586 1.868 1.51 2.41 2.646v-1.092c0-.728.213-1.316.64-1.764.426-.448.991-.672 1.694-.672Zm-7.115 16.296c1.505 0 2.673-.546 3.501-1.638.853-1.092 1.28-2.59 1.28-4.494 0-1.932-.427-3.444-1.28-4.536-.828-1.092-1.996-1.638-3.501-1.638-1.481 0-2.648.546-3.501 1.638-.854 1.092-1.28 2.604-1.28 4.536 0 1.904.426 3.402 1.28 4.494.853 1.092 2.02 1.638 3.501 1.638Z"/></g><defs><clipPath id="a"><path fill="#fff" d="M0 0h147v38H0z"/></clipPath></defs></svg>