<svg xmlns="http://www.w3.org/2000/svg" width="186" height="41" fill="none"><g clip-path="url(#a)"><mask id="b" width="186" height="41" x="0" y="0" maskUnits="userSpaceOnUse" style="mask-type:luminance"><path fill="#fff" d="M0 0h186v41H0V0Z"/></mask><g mask="url(#b)"><path fill="#9C9C9C" fill-rule="evenodd" d="M12.461 36.123a.712.712 0 0 1-.342-.093.806.806 0 0 1-.27-.251 2.588 2.588 0 0 1-.403-1.03 15.463 15.463 0 0 1-.223-1.44 19.435 19.435 0 0 1-.095-1.876 126.04 126.04 0 0 1 .012-4.134c.016-.846.024-1.506.024-1.982V9.565c0-.776.004-1.366.012-1.771.008-.405.036-.863.081-1.374a6.5 6.5 0 0 1 .178-1.123c.09-.283.209-.553.354-.806.134-.265.329-.484.566-.634.275-.154.559-.29.848-.41.374-.155.76-.266 1.155-.33a30.596 30.596 0 0 1 1.545-.212V1.45L15.501 1H1.263l-.378.45v1.242c2.39.159 3.726.917 4.008 2.273.165 1.145.243 2.303.236 3.462v24.127a27.07 27.07 0 0 1-.142 3.753 1.78 1.78 0 0 1-.282.528 9.563 9.563 0 0 1-.577.7c-.16.173-.314.354-.46.542v.925c12.15 0 19.67.088 22.562.265l1.014-3.832-.636-.503a126.826 126.826 0 0 1-14.146 1.19Zm22.585-11.046a.59.59 0 0 1-.142.026c-.235 0-.353-.096-.353-.29.001-.876.06-1.751.177-2.617.133-.944.353-1.87.66-2.761.296-.903.701-1.757 1.205-2.537a5.857 5.857 0 0 1 2.023-1.874 5.17 5.17 0 0 1 2.562-.65c.641-.04 1.28.107 1.854.427.575.32 1.065.801 1.423 1.397a7.884 7.884 0 0 1 1.109 4.175c-.004.272-.08.537-.222.759-.141.222-.34.39-.569.483a35.802 35.802 0 0 1-3.949 1.507c-1.884.62-3.762 1.263-5.633 1.93a.597.597 0 0 0-.145.025Zm14.003 8.245c-2.83 1.92-5.274 2.88-7.33 2.88-1.394.034-2.762-.419-3.915-1.295-1.072-.805-1.924-1.925-2.463-3.237-.53-1.316-.8-2.745-.79-4.188 10.28-3.576 15.466-5.365 15.56-5.365a1.728 1.728 0 0 0 1.028-.716c.255-.368.384-.827.362-1.292a8.27 8.27 0 0 0-.79-3.726 6.183 6.183 0 0 0-2.133-2.471 9.727 9.727 0 0 0-2.912-1.295 13.361 13.361 0 0 0-3.384-.41 12.983 12.983 0 0 0-5.94 1.335c-1.65.797-3.108 2.02-4.254 3.568a16.88 16.88 0 0 0-2.464 5.02 19.9 19.9 0 0 0-.85 5.828c0 4.07.984 7.118 2.948 9.144 1.776 1.85 4.283 2.774 7.52 2.774a11.113 11.113 0 0 0 5.34-1.453 40.615 40.615 0 0 0 5.718-3.86l-.516-1.028-.735-.213ZM80.803 5.457c-.632-1.845-1.873-3.35-3.466-4.202a13.279 13.279 0 0 0-6.248-1.268 16.513 16.513 0 0 0-4.632.634 13.356 13.356 0 0 0-3.984 1.903c-1.208.851-2.195 2.04-2.864 3.45a11.306 11.306 0 0 0-1.062 5.007c0 1.247.27 2.476.79 3.58a9.96 9.96 0 0 0 1.98 2.895 24.56 24.56 0 0 0 2.781 2.365c.981.73 1.997 1.4 3.043 2.008.983.565 1.95 1.165 2.9 1.798a13.157 13.157 0 0 1 2.204 1.757c1.744 1.815 2.616 3.54 2.616 5.18a7.02 7.02 0 0 1-.478 2.529 6.414 6.414 0 0 1-1.337 2.108 5.984 5.984 0 0 1-1.994 1.514c-.75.348-1.555.52-2.367.508a5.664 5.664 0 0 1-2.756-.622 6.362 6.362 0 0 1-2.23-1.915c-1.252-1.602-1.935-3.662-1.921-5.79l-.919-.37-4.69 5.894c1.072 1.735 2.525 3.132 4.22 4.057a11.31 11.31 0 0 0 5.54 1.415 15.838 15.838 0 0 0 5.163-.9 18.178 18.178 0 0 0 4.763-2.445c1.406-1.004 2.6-2.338 3.5-3.91a9.965 9.965 0 0 0 1.356-5.035 8.638 8.638 0 0 0-.448-2.814 9.352 9.352 0 0 0-1.155-2.326 10.907 10.907 0 0 0-1.969-2.074 25.178 25.178 0 0 0-2.511-1.865 83.615 83.615 0 0 0-3.158-1.916 39.35 39.35 0 0 1-2.193-1.282 26.126 26.126 0 0 1-1.984-1.434 10.38 10.38 0 0 1-1.79-1.76 8.365 8.365 0 0 1-1.132-2.062 6.923 6.923 0 0 1-.471-2.55c-.015-.718.1-1.431.336-2.099a5.466 5.466 0 0 1 1.041-1.786 4.844 4.844 0 0 1 1.672-1.22 4.398 4.398 0 0 1 1.97-.365 5.126 5.126 0 0 1 2.431.487c.769.36 1.456.907 2.014 1.6 1.116 1.413 1.82 3.175 2.015 5.048l.825.29 4.599-4.017Zm22.926 10.135a5.09 5.09 0 0 0-1.768-1.982 8 8 0 0 0-2.334-1.017 10.751 10.751 0 0 0-2.675-.317c-1.716-.027-3.423.3-5.034.965a10.807 10.807 0 0 0-3.725 2.55 13.862 13.862 0 0 0-2.451 3.738 19.186 19.186 0 0 0-1.404 4.427 25.734 25.734 0 0 0-.423 4.73c-.006 1.35.165 2.694.506 3.988.33 1.253.845 2.436 1.52 3.502.712 1.1 1.667 1.974 2.771 2.537a8.453 8.453 0 0 0 4.043.938c4.416 0 8.566-2.176 12.448-6.527l-.472-.767-.589-.158c-2.876 2.484-5.532 3.726-7.968 3.726a5.152 5.152 0 0 1-2.629-.674 5.486 5.486 0 0 1-1.877-1.743 11.037 11.037 0 0 1-1.19-2.458 14.417 14.417 0 0 1-.672-2.708 18.781 18.781 0 0 1-.189-2.643c.005-1.125.092-2.247.26-3.356.184-1.235.46-2.45.825-3.634a7.79 7.79 0 0 1 1.674-3.066 3.619 3.619 0 0 1 1.188-.894 3.283 3.283 0 0 1 1.405-.308 3.17 3.17 0 0 1 1.852.468 3.69 3.69 0 0 1 1.354 1.488 10.165 10.165 0 0 1 1.037 4.81l.826.37 4.456-2.96a7.314 7.314 0 0 0-.765-3.025Zm8.641 7.862c.12-1.038.329-2.06.625-3.052a12.04 12.04 0 0 1 1.143-2.735 5.764 5.764 0 0 1 1.828-1.916 4.62 4.62 0 0 1 2.604-.753 4.788 4.788 0 0 1 2.817.832 5.33 5.33 0 0 1 1.827 2.273c.427.967.735 1.993.919 3.052.194 1.14.289 2.3.283 3.462 0 1.057-.008 1.938-.024 2.642-.025.848-.08 1.695-.165 2.538-.069.83-.199 1.65-.389 2.457-.185.71-.425 1.4-.719 2.062a5.17 5.17 0 0 1-1.143 1.717 5.53 5.53 0 0 1-1.674 1.057 5.87 5.87 0 0 1-2.298.423 3.88 3.88 0 0 1-2.418-.82 5.848 5.848 0 0 1-1.684-2.021 13.32 13.32 0 0 1-1.014-2.761 20.162 20.162 0 0 1-.543-2.895 24.39 24.39 0 0 1-.141-2.55 27.042 27.042 0 0 1 .166-3.012Zm-2.923 13.663c1.712 1.744 4.431 2.616 8.157 2.616 1.377.01 2.75-.167 4.09-.53 1.26-.35 2.461-.925 3.557-1.703a11.1 11.1 0 0 0 2.841-2.947 14.506 14.506 0 0 0 1.863-4.387 23.25 23.25 0 0 0 .684-5.866 12.145 12.145 0 0 0-.777-4.653 11.08 11.08 0 0 0-2.453-3.857c-1.965-1.972-4.818-2.96-8.558-2.96s-6.821 1.296-9.242 3.886a13.118 13.118 0 0 0-2.751 4.468 14.326 14.326 0 0 0-.879 5.336c0 4.722 1.154 8.254 3.465 10.597h.003Zm36.894-20.93c1.257 0 2.153.282 2.688.846.498.68.813 1.506.907 2.38.197 1.03.32 2.078.365 3.13.032.926.048 2.12.048 3.582a540.552 540.552 0 0 1-.035 5.695c-.008.572-.005 1.246.011 2.022.004.578.035 1.156.094 1.73.048.38.11.794.189 1.242.055.376.166.737.33 1.07.141.265.315.506.517.715.707.718 1.638 1.097 2.592 1.056 1.18 0 2.531-.67 4.056-2.008a46.84 46.84 0 0 0 3.63-3.78l-.542-.9h-.566c-.922.827-2.049 1.316-3.229 1.4-.25.017-.5-.024-.735-.12a1.83 1.83 0 0 1-.633-.434 1.99 1.99 0 0 1-.413-.514 4.153 4.153 0 0 1-.247-1.084c-.09-.758-.13-1.522-.118-2.286 0-.581.028-1.52.082-2.814.044-.92.072-1.84.083-2.762v-1.586c.016-1.71.012-2.893-.011-3.555a27.914 27.914 0 0 0-.272-2.695 5.292 5.292 0 0 0-.731-2.352 4.986 4.986 0 0 0-1.462-1.215 4.67 4.67 0 0 0-2.404-.57c-2.766 0-5.973 1.27-9.619 3.807l-.566-.238a5.413 5.413 0 0 0-.812-2.708c-.465-.68-1.262-1.018-2.393-1.018a5.83 5.83 0 0 0-1.993.383 9.253 9.253 0 0 0-2.123 1.136c-.715.503-1.336.97-1.862 1.4a56.58 56.58 0 0 0-1.827 1.573l.872 1.295c.16-.116.321-.23.483-.343.275-.194.515-.352.719-.476.204-.123.448-.268.731-.436.253-.154.518-.283.79-.386.209-.08.427-.125.648-.132.273-.007.542.07.778.225.239.177.42.437.517.74.118.32.22.645.306.977a7.5 7.5 0 0 1 .165 1.362c.032.6.051 1.084.057 1.453.007.369.011.924.012 1.665v.45c0 1.726-.118 7.01-.353 15.855l.589.37 5.304-1.718c-.157-.757-.275-3.144-.354-7.16a578.915 578.915 0 0 1-.114-11.787c2.734-1.656 4.683-2.484 5.846-2.484l.005.002Zm22.868 9.01a.569.569 0 0 1-.141.028c-.235 0-.354-.097-.354-.29 0-.877.059-1.751.178-2.617.132-.944.353-1.87.659-2.762.296-.903.7-1.757 1.202-2.537a5.856 5.856 0 0 1 2.024-1.874 5.165 5.165 0 0 1 2.562-.65 3.37 3.37 0 0 1 1.854.427 3.86 3.86 0 0 1 1.422 1.397 7.862 7.862 0 0 1 1.108 4.175c-.003.272-.08.537-.222.758-.141.222-.339.39-.567.484a35.963 35.963 0 0 1-3.948 1.507c-1.885.62-3.763 1.263-5.635 1.93a.624.624 0 0 0-.141.025l-.001-.001Zm14.004 8.246c-2.831 1.92-5.275 2.88-7.332 2.88-1.393.033-2.761-.419-3.914-1.294-1.072-.805-1.924-1.925-2.463-3.237a10.998 10.998 0 0 1-.79-4.19c10.279-3.575 15.465-5.363 15.56-5.363a1.731 1.731 0 0 0 1.028-.717c.255-.368.384-.827.363-1.292a8.265 8.265 0 0 0-.79-3.726 6.183 6.183 0 0 0-2.134-2.471 9.743 9.743 0 0 0-2.911-1.295 13.363 13.363 0 0 0-3.386-.41 12.977 12.977 0 0 0-5.937 1.335c-1.651.797-3.109 2.02-4.255 3.568a16.839 16.839 0 0 0-2.464 5.02 19.863 19.863 0 0 0-.848 5.828c0 4.07.981 7.117 2.946 9.144 1.776 1.85 4.283 2.774 7.521 2.774a11.115 11.115 0 0 0 5.34-1.453 40.81 40.81 0 0 0 5.717-3.86l-.516-1.028-.735-.213Z" clip-rule="evenodd"/></g></g><defs><clipPath id="a"><path fill="#fff" d="M0 0h186v41H0z"/></clipPath></defs></svg>