<svg xmlns="http://www.w3.org/2000/svg" width="148" height="36" fill="none"><g clip-path="url(#a)"><path fill="#9C9C9C" d="M44.624 37.52V2h-8.976L16.88 29.408l-3.168-3.984c5.664-.864 8.832-5.856 8.832-11.184 0-5.088-2.784-9.36-6.528-10.992C14.144 2.432 11.36 2 7.664 2H-4v35.52h8.688V26.048h.096l8.208 11.472h9.168l3.12-5.136h10.272v5.136h9.072ZM4.688 19.856V9.968h3.456c3.408 0 5.712 1.728 5.712 4.8 0 3.264-2.16 5.088-5.76 5.088H4.688Zm30.864 5.328H29.6l5.856-9.84h.096v9.84ZM81.03 37.52V2h-8.688l.384 22.464L58.902 2h-7.824v35.52h8.688l-.24-21.696L73.158 37.52h7.872Zm26.198 0v-7.968h-11.04v-6.096h10.704v-7.968H96.188v-5.52h11.04V2H87.5v35.52h19.728Zm36.062 0-12.528-17.808L142.522 2h-9.504l-10.032 15.984h-.096V2h-9.072v35.52h9.072V22.16h.096l9.696 15.36h10.608Z"/></g><defs><clipPath id="a"><path fill="#fff" d="M0 0h148v36H0z"/></clipPath></defs></svg>