<svg xmlns="http://www.w3.org/2000/svg" width="179" height="49" fill="none"><g fill="#9C9C9C" clip-path="url(#a)"><path d="M48.671 44.014c-2.971 0-5.25-.568-6.834-1.704-1.558-1.168-2.335-2.873-2.335-5.114 0-1.136.34-2.068 1.018-2.794.708-.757 1.614-1.136 2.717-1.136.651.032 1.146.22 1.486.568.34.316.51.616.51.9 0 .031-.142.142-.425.331-.283.19-.537.474-.764.852-.227.38-.34.9-.34 1.563 0 1.484.397 2.636 1.19 3.457.82.79 2.08 1.183 3.777 1.183 1.16 0 2.18-.252 3.057-.757.877-.505 1.542-1.168 1.995-1.989.48-.852.722-1.736.722-2.652 0-1.136-.297-2.114-.892-2.935a7.264 7.264 0 0 0-2.122-2.036c-.85-.568-2.01-1.216-3.481-1.942-1.698-.852-3.07-1.625-4.117-2.32a9.317 9.317 0 0 1-2.676-2.746c-.735-1.168-1.103-2.604-1.103-4.309 0-2.746.834-4.798 2.504-6.155 1.699-1.358 3.92-2.036 6.665-2.036 2.15 0 4.019.505 5.604 1.515 1.614 1.01 2.42 2.494 2.42 4.45 0 1.137-.355 2.084-1.062 2.842-.679.726-1.57 1.09-2.674 1.09-.651-.033-1.146-.207-1.486-.522-.34-.347-.51-.663-.51-.947 0-.032.185-.142.553-.332a2.728 2.728 0 0 0 1.018-.852c.312-.379.467-.9.467-1.562 0-1.168-.41-2.084-1.23-2.747-.793-.663-1.812-.994-3.058-.994-1.725 0-3.042.458-3.947 1.373-.878.884-1.316 1.99-1.316 3.315 0 1.104.268 2.036.806 2.793.537.726 1.4 1.452 2.59 2.178a52.575 52.575 0 0 0 3.14 1.705c1.812.915 3.242 1.752 4.289 2.51a9.177 9.177 0 0 1 2.674 2.983c.736 1.23 1.105 2.762 1.105 4.592a7.35 7.35 0 0 1-1.36 4.31c-.876 1.262-2.08 2.256-3.608 2.982-1.5.726-3.155 1.09-4.967 1.09Zm21.492-.378c-1.925 0-3.453-.648-4.585-1.942-1.133-1.294-1.698-2.999-1.698-5.114v-8.76c0-.82-.029-1.42-.085-1.799-.028-.378-.198-.71-.51-.994-.311-.284-.835-.426-1.57-.426-.34 0-.595-.047-.765-.142-.17-.126-.254-.395-.254-.805 0-.19.057-.363.17-.52a.67.67 0 0 1 .51-.332c1.782-.285 3.311-.695 4.584-1.232.396-.157.721-.252.976-.284h.127c.453 0 .68.3.68.9v14.347c0 1.452.41 2.573 1.231 3.362.796.747 1.805 1.15 2.844 1.136 1.33 0 2.462-.363 3.396-1.089.934-.726 1.557-1.452 1.868-2.178v-9.943c0-.82-.028-1.42-.084-1.8-.029-.378-.199-.71-.51-.994-.312-.284-.835-.426-1.571-.426-.34 0-.594-.047-.764-.142-.17-.126-.255-.395-.255-.805 0-.19.057-.363.17-.52a.67.67 0 0 1 .51-.332c1.782-.285 3.311-.695 4.585-1.232.395-.157.721-.252.975-.284h.128c.453 0 .68.3.68.9V38.57c0 1.863 1.117 2.794 3.353 2.794.48 0 .721.3.721.9 0 .441-.24.71-.72.804l-6.836.521c-.198 0-.311-.079-.34-.236-.027-.127-.042-.363-.042-.71V39.99h-.084a53.744 53.744 0 0 1-1.996 1.988c-.51.442-1.174.821-1.996 1.137-.792.347-1.74.52-2.843.52v.001Zm17.18-.426a.589.589 0 0 1-.285-.076.666.666 0 0 1-.225-.209 1.268 1.268 0 0 1-.17-.662c.029-.41.114-.648.255-.71.142-.095.396-.143.764-.143.736 0 1.26-.142 1.571-.426.311-.284.481-.616.51-.994.056-.38.084-.979.084-1.8V27.347c0-.82-.027-1.42-.085-1.8-.028-.378-.198-.71-.509-.993-.311-.284-.835-.427-1.57-.427-.34 0-.595-.047-.764-.142-.17-.126-.255-.394-.255-.805 0-.189.056-.363.17-.52a.67.67 0 0 1 .509-.332c1.84-.316 3.354-.726 4.542-1.23.482-.159.807-.254.977-.285h.127c.453 0 .679.3.679.9v2.935h.127c.99-1.105 1.996-1.973 3.014-2.604 1.02-.663 1.939-.994 2.76-.994.934 0 1.67.394 2.208 1.183.565.758.848 1.642.848 2.652 0 .884-.24 1.673-.721 2.367-.482.695-1.147 1.042-1.995 1.042-.37.007-.735-.09-1.062-.284-.282-.19-.438-.347-.467-.473.029-.063.17-.253.424-.569.255-.347.383-.74.383-1.183 0-.569-.142-1.026-.425-1.373-.255-.348-.608-.52-1.061-.52-.48 0-1.09.267-1.825.804-.737.505-1.458 1.152-2.165 1.941V38.19c0 .821.028 1.42.084 1.8.057.378.24.71.552.994.312.284.835.426 1.571.426h.255c.227 0 .396.048.51.142.112.095.183.332.211.71 0 .253-.056.474-.17.663a.554.554 0 0 1-.509.285 78.071 78.071 0 0 0-4.457-.143c-1.273 0-2.745.05-4.415.143Zm65.932.426c-1.924 0-3.636-.506-5.136-1.516-1.5-1.04-2.675-2.399-3.524-4.072a12.292 12.292 0 0 1-1.231-5.398c0-2.367.495-4.419 1.486-6.155.991-1.768 2.25-3.11 3.778-4.025 1.529-.947 3.071-1.42 4.627-1.42 1.925 0 3.637.52 5.137 1.562 1.472.977 2.675 2.385 3.481 4.072a11.659 11.659 0 0 1 1.274 5.35c0 2.368-.51 4.436-1.528 6.204-.991 1.736-2.25 3.077-3.779 4.024-1.528.916-3.056 1.374-4.585 1.374Zm0-1.752c1.925 0 3.326-.916 4.203-2.747.906-1.83 1.359-4.198 1.359-7.102 0-2.715-.468-4.924-1.401-6.63-.906-1.735-2.293-2.603-4.161-2.603-1.952 0-3.367.9-4.245 2.7-.877 1.798-1.316 4.15-1.316 7.054 0 2.714.453 4.956 1.359 6.723.906 1.737 2.306 2.605 4.202 2.605Zm20.589 1.988c-1.388 0-2.576-.568-3.567-1.704-.99-1.137-1.486-2.762-1.486-4.877v-13.92l-2.462.094a.475.475 0 0 1-.237-.061.541.541 0 0 1-.187-.176 1.173 1.173 0 0 1-.17-.616c0-.284.043-.52.127-.71.114-.22.269-.347.467-.379.991-.22 1.755-.568 2.293-1.04.566-.507.977-1.043 1.231-1.61.255-.6.566-1.5.934-2.7.142-.41.453-.616.934-.616.197 0 .396.063.594.19a.486.486 0 0 1 .297.473l-.297 5.398 4.967-.332h.085c.368 0 .552.3.552.9 0 .347-.057.68-.171.994-.084.285-.197.427-.339.427l-4.754-.142V37.86c0 1.042.184 1.91.551 2.604.397.695 1.033 1.042 1.911 1.042.877 0 1.656-.174 2.334-.52.369-.159.595-.238.68-.238.198 0 .354.095.467.284.113.158.226.38.34.663.03.075.044.155.042.237 0 .126-.085.268-.255.426-.821.6-1.599.995-2.334 1.184-.708.22-1.558.331-2.547.331Zm-68.615-.947c.113.19.283.284.51.284 1.47-.09 2.942-.137 4.415-.142 1.896 0 3.665.048 5.306.142a.492.492 0 0 0 .268-.072.572.572 0 0 0 .199-.212c.113-.19.169-.41.169-.663-.027-.378-.098-.615-.212-.71-.085-.094-.254-.142-.509-.142h-.255c-.934 0-1.599-.079-1.995-.237a1.344 1.344 0 0 1-.806-.852c-.142-.442-.213-1.152-.213-2.13V23.463h4.501a.591.591 0 0 0 .284-.076.67.67 0 0 0 .225-.208c.141-.189.212-.41.212-.663-.029-.378-.114-.615-.255-.71-.113-.126-.297-.19-.551-.19h-4.416v-2.84c0-1.515.057-2.84.17-3.978a8.275 8.275 0 0 1 .976-3.22c.538-.978 1.373-1.467 2.505-1.467.13 0 .256.008.378.025a8.934 8.934 0 0 1 .093-1.585 6.39 6.39 0 0 0-.174-.003c-2.49.063-4.429 1.12-5.815 3.173-1.359 2.02-2.038 4.656-2.038 7.907v1.99h-2.547c-.368 0-.623.046-.765.141-.141.063-.226.316-.254.757 0 .253.056.474.169.663a.66.66 0 0 0 .552.285h2.845V38.19c0 .853-.029 1.468-.085 1.847-.028.347-.198.663-.51.947-.311.284-.835.426-1.57.426-.368 0-.623.048-.765.142-.112.063-.183.3-.212.71 0 .253.057.474.17.663Z"/><path fill-rule="evenodd" d="M127.942 9.865a5.822 5.822 0 0 1-.36 2.014 5.354 5.354 0 0 1-1.023 1.707 4.713 4.713 0 0 1-1.53 1.14c-.572.264-1.185.4-1.804.399-1.249.001-2.448-.553-3.333-1.539-.884-.986-1.382-2.325-1.383-3.721 0-.692.123-1.376.36-2.015a5.339 5.339 0 0 1 1.023-1.707 4.715 4.715 0 0 1 1.53-1.14 4.28 4.28 0 0 1 3.607-.001 4.714 4.714 0 0 1 1.53 1.14 5.34 5.34 0 0 1 1.023 1.708c.237.639.36 1.323.36 2.015Zm-4.717 2.63c.31 0 .616-.067.902-.2.286-.131.546-.325.765-.57a2.68 2.68 0 0 0 .512-.853 2.913 2.913 0 0 0 0-2.015 2.662 2.662 0 0 0-.512-.854 2.346 2.346 0 0 0-.765-.57 2.14 2.14 0 0 0-.902-.199c-.624 0-1.224.277-1.666.77a2.8 2.8 0 0 0-.692 1.86 2.8 2.8 0 0 0 .692 1.86c.442.494 1.041.771 1.666.771Zm-2.067 4.919v25.37c0 .283.072.504.213.662.141.19.339.284.594.284.254 0 .467-.126.637-.378.17-.221.325-.553.467-.995.141-.442.268-.789.382-1.042h.212c1.839 1.547 4.019 2.32 6.537 2.32 1.699 0 3.297-.505 4.797-1.515 1.5-1.01 2.689-2.383 3.567-4.12.905-1.767 1.358-3.708 1.358-5.823 0-2.147-.396-4.056-1.189-5.73-.763-1.704-1.825-3.03-3.183-3.977a7.764 7.764 0 0 0-4.543-1.42c-1.019 0-2.052.236-3.099.71-1.018.442-1.939 1.12-2.759 2.036h-.127V17.5a6.424 6.424 0 0 1-3.864-.086Zm12.821 22.007c-1.047 1.737-2.435 2.605-4.16 2.605-.906 0-1.712-.221-2.42-.663a5.998 5.998 0 0 1-1.656-1.563c-.396-.631-.636-1.2-.721-1.704v-12.5c1.216-1.453 2.716-2.179 4.5-2.179 2.009 0 3.522.884 4.542 2.652 1.018 1.736 1.528 3.835 1.528 6.297 0 2.936-.537 5.288-1.613 7.055ZM11.366.367c.3-.239.66-.367 1.029-.367.369 0 .728.128 1.028.367 7.661 6.104 11.134 13.421 11.353 23.92.101 5.013-.33 9.603-1.647 13.568-1.352 3.968-3.753 7.633-7.288 10.729-.22.191-.478.322-.752.38-.273.06-.556.046-.824-.04-1.083-.347-1.267-1.779-1.87-2.671-.603.892-.786 2.323-1.87 2.67-.269.086-.55.1-.824.04a1.69 1.69 0 0 1-.751-.38c-3.535-3.095-5.937-6.76-7.288-10.728C.346 33.89-.087 29.3.014 24.287.233 13.788 3.705 6.47 11.366.367Zm3.962 43.695c2.212-2.27 3.546-4.745 4.487-7.592 1.186-3.48 1.528-7.326 1.425-12.091-.17-8.187-1.888-13.514-7.09-18.46v14.468c2.033.584 2.946 2.81 2.946 5.26 0 2.452-.913 4.678-2.947 5.262v11.837s.945.973 1.179 1.316Zm-5.896 0c-2.213-2.27-3.515-4.745-4.458-7.592-1.185-3.48-1.526-7.326-1.423-12.091.17-8.17 1.879-13.52 7.06-18.46v14.468c-2.034.584-2.948 2.81-2.948 5.26 0 2.452.913 4.678 2.948 5.262v11.837s-.954.985-1.18 1.316Zm2.948-21.045c-.625 0-1.225.276-1.667.77a2.797 2.797 0 0 0-.692 1.86c0 1.454 1.056 2.631 2.359 2.631.624 0 1.224-.276 1.666-.77a2.797 2.797 0 0 0 .692-1.86c0-1.453-1.056-2.631-2.358-2.631Z" clip-rule="evenodd"/></g><defs><clipPath id="a"><path fill="#fff" d="M0 0h179v49H0z"/></clipPath></defs></svg>