<svg xmlns="http://www.w3.org/2000/svg" width="175" height="34" fill="none"><g clip-path="url(#a)"><path fill="#9C9C9C" d="M19.325 32.955a5.698 5.698 0 0 1-3.018-.769 6.426 6.426 0 0 1-2.298-2.29c-1.826 1.879-4.192 2.964-6.67 3.06-4.452 0-6.866-3.465-6.05-8.43.619-3.735 3.391-7.477 4.166-10.48-1.5-1.009-3.726-1.71-4.77.35L0 13.935c.546-2.258 1.867-3.76 3.775-3.76s3.319 1.25 5.137.1h1.451c-.774 4.497-2.73 8.095-3.775 14.393-.635 3.86.547 5.614 2.545 5.614 1.476-.203 2.834-1.007 3.815-2.259a19.912 19.912 0 0 1-1.182-6.918c0-5.47 2.275-11.236 6.091-11.236 1.957 0 3.408 1.502 3.408 5.065 0 3.562-1.956 9.077-4.452 12.54a3.701 3.701 0 0 0 1.108 2.113c.58.54 1.313.84 2.073.848 3.636 0 6.18-6.02 6.18-11.588s-2.185-5.317-1.997-7.197c.017-.235.075-.464.17-.673.097-.21.23-.396.39-.549.325-.31.748-.465 1.176-.433 1.134 0 2.625 1.583 2.625 8.007 0 8.186-3.945 14.952-9.213 14.952Zm-.823-20.26c-1.134 0-2.227 4.615-2.365 9.383a22.548 22.548 0 0 0 .049 3.06c1.71-3.12 2.753-6.639 3.049-10.284-.008-1.62-.277-2.16-.734-2.16v.001Zm17.506 20.053a2.979 2.979 0 0 1-1.408-.18 3.229 3.229 0 0 1-1.205-.823 3.653 3.653 0 0 1-.775-1.309 3.942 3.942 0 0 1-.2-1.548c0-2.204 2.593-13.189 2.593-14.997 0-.854-.18-1.358-.864-1.358a3.813 3.813 0 0 0-2.047 1.106v-1.556c1.187-1.206 2.72-1.898 4.321-1.952.479-.048.96.02 1.414.2.451.18.862.465 1.204.838.341.372.605.822.773 1.32.167.496.235 1.027.197 1.555 0 2.204-2.592 13.144-2.592 14.943 0 .855.178 1.36.864 1.36a4.094 4.094 0 0 0 2.047-1.054v1.502c-1.183 1.214-2.718 1.908-4.322 1.953ZM39.188 1c.355-.012.708.06 1.036.214.327.154.62.384.858.675.239.289.417.633.522 1.009.105.375.135.771.087 1.161-.088.832-.444 1.6-1 2.158-.563.564-1.287.884-2.041.901a2.247 2.247 0 0 1-1.036-.214 2.466 2.466 0 0 1-.859-.675 2.75 2.75 0 0 1-.522-1.008 2.969 2.969 0 0 1-.087-1.162c.088-.832.444-1.6 1.001-2.158.563-.563 1.286-.884 2.04-.9Zm10.094 27.035c-.227 1.358-.09 2.303.775 2.303a3.922 3.922 0 0 0 2.047-1.053l.08 1.511c-1.186 1.206-2.718 1.899-4.32 1.953-2.822 0-3.914-2.258-3.498-5.065l2.772-17.408c.922-5.812.603-6.577-2.218-6.577l.18-1.403 8.504-1.242-4.322 26.981Zm23.916-.046c-.228 1.36-.14 2.358.774 2.358a4.167 4.167 0 0 0 2.048-1.107v1.556c-1.18 1.22-2.717 1.915-4.322 1.953-.812.066-1.617-.207-2.26-.766-.638-.553-1.066-1.356-1.198-2.248a7.657 7.657 0 0 1-2.569 2.371 6.874 6.874 0 0 1-3.252.886c-5.406 0-7.681-5.263-6.638-11.588 1.044-6.324 5.911-11.488 11.415-11.488a7.081 7.081 0 0 1 3.743.98l.139-.8c1.076-6.19.58-6.397-2.242-6.397l.138-1.403 8.545-1.242-4.322 26.936h.001Zm-5.863-15.806c-3.14 0-5.226 4.111-6.05 9.176-.864 5.317-.318 8.997 2.634 8.997 1.997 0 4.272-2.7 4.957-6.82l1.68-10.435a5.353 5.353 0 0 0-3.221-.918ZM87.565 33c-6.32 0-8.048-5.02-7.273-9.833l2.063-12.89c.954-5.82.636-6.623-2.185-6.623l.178-1.403 8.53-1.197-1.729 10.931c1.334-1.276 3.017-2.003 4.77-2.06 5.504 0 8.089 5.164 7.094 11.488C98.02 27.737 92.955 33 87.565 33Zm2.952-20.69c-.917.02-1.805.36-2.54.973-.73.609-1.268 1.461-1.537 2.435l-1.272 8.097c-.775 4.813.775 6.774 2.732 6.774 2.862 0 4.64-3.508 5.593-9.275.848-5.164.074-8.978-2.984-8.978l.008-.027Zm17.115 12.018c0 3.86 1.68 5.92 4.892 5.92 1.631 0 4.004-1.25 5.505-2.906l.635 1.601a11.829 11.829 0 0 1-3.81 2.968 10.823 10.823 0 0 1-4.556 1.098c-4.769 0-7.999-3.913-7.999-9.23 0-7.872 5.912-13.845 11.596-13.845 3.457 0 5.405 2.105 5.405 4.561-.04 3.814-3.318 8.097-11.668 9.833Zm5.863-12.09c-2.593 0-5.088 4.164-5.774 10.13 5.227-1.405 7.453-5.318 7.502-7.828-.008-1.403-.603-2.303-1.736-2.303h.008Zm24.356 20.511c-.812.066-1.617-.207-2.26-.766-.638-.554-1.065-1.356-1.197-2.248a7.42 7.42 0 0 1-2.506 2.373 6.628 6.628 0 0 1-3.202.883c-5.316 0-7.591-5.262-6.523-11.587 1.067-6.324 5.854-11.48 11.374-11.48a7.912 7.912 0 0 1 3.409.757h5.185l-2.78 17.308c-.229 1.36-.139 2.358.775 2.358a4.165 4.165 0 0 0 2.046-1.107v1.556c-1.179 1.22-2.716 1.915-4.321 1.953Zm-4.183-20.566c-3.05 0-5.186 4.111-6.002 9.176-.864 5.317-.269 8.997 2.447 8.997 2.087 0 4.321-2.807 4.958-6.82L136.75 13.1a4.901 4.901 0 0 0-3.074-.918h-.008Zm24.372 3.661c-1.231 0-1.55-1.052-1.908-2.159a2.5 2.5 0 0 0-.829-1.396 2.095 2.095 0 0 0-1.446-.493c-.673-.04-1.335.2-1.86.674-.52.47-.864 1.14-.961 1.881-.139 1.36.774 2.51 2.502 4.165l2.316 2.105c.861.718 1.529 1.686 1.933 2.8.4 1.11.519 2.32.342 3.498-.587 3.76-3.408 6.072-7.183 6.072-4.55 0-7.453-2.96-7.135-4.966.074-.527.315-1.01.681-1.358.366-.35.833-.544 1.317-.549 1.182 0 1.63 1 1.997 2.303.236.75.689 1.392 1.289 1.828a3.032 3.032 0 0 0 2.03.583 2.68 2.68 0 0 0 1.95-.718c.544-.496.902-1.202 1.002-1.98.179-1.8-.815-2.906-2.682-4.769l-2.275-2.204a6.256 6.256 0 0 1-1.811-2.607 6.9 6.9 0 0 1-.375-3.258c.408-2.41 2.446-5.398 7.135-5.398 3.636 0 5.911 2.258 5.708 4.066a2.077 2.077 0 0 1-.536 1.315c-.321.348-.751.55-1.201.565Zm16.642-3.148h-4.411l-2.136 13.332c-.457 2.762-.09 4.013 1.271 4.013.726 0 1.867-.45 3.498-2.303l.09 1.952a8.087 8.087 0 0 1-2.692 2.28 7.33 7.33 0 0 1-3.309.832c-3.09 0-4.639-2.41-3.905-6.873l2.135-13.233h-3.449l.27-2.06h3.481l.913-5.965h5.089l-.955 5.964h4.412l-.302 2.061Z"/></g><defs><clipPath id="a"><path fill="#fff" d="M0 0h175v34H0z"/></clipPath></defs></svg>