<svg width="32" height="35" viewBox="0 0 32 35" fill="none" xmlns="http://www.w3.org/2000/svg">
<path d="M16 0.000488281C11.6533 0.000488281 11.1107 0.0219268 9.404 0.103393C7.7 0.189147 6.54 0.476422 5.52 0.900904C4.468 1.33825 3.57467 1.92566 2.68533 2.87896C1.796 3.83226 1.24667 4.78842 0.84 5.91751C0.444 7.01087 0.174667 8.2543 0.096 10.0809C0.016 11.9103 0 12.4919 0 17.1513C0 21.8106 0.02 22.3922 0.096 24.2217C0.176 26.0468 0.444 27.2917 0.84 28.385C1.248 29.5113 1.796 30.4702 2.68533 31.4236C3.57467 32.3755 4.46667 32.9657 5.52 33.4016C6.54133 33.8247 7.70133 34.1148 9.404 34.1991C11.1107 34.2849 11.6533 34.302 16 34.302C20.3467 34.302 20.8893 34.2806 22.596 34.1991C24.2987 34.1134 25.46 33.8247 26.48 33.4016C27.5307 32.9643 28.4253 32.3755 29.3147 31.4236C30.2027 30.4702 30.7533 29.5156 31.16 28.385C31.5547 27.2917 31.8253 26.0468 31.904 24.2217C31.984 22.3922 32 21.8106 32 17.1513C32 12.4919 31.98 11.9103 31.904 10.0809C31.824 8.25573 31.5547 7.00944 31.16 5.91751C30.752 4.78984 30.2027 3.83226 29.3147 2.87896C28.4253 1.92566 27.5347 1.33682 26.48 0.900904C25.46 0.476422 24.2987 0.187718 22.596 0.103393C20.8893 0.0176391 20.3467 0.000488281 16 0.000488281ZM16 3.08763C20.2707 3.08763 20.78 3.11049 22.4667 3.18911C24.0267 3.26771 24.8733 3.54499 25.436 3.78223C26.1853 4.09237 26.716 4.46398 27.2787 5.06283C27.8373 5.66311 28.184 6.23337 28.4733 7.03659C28.692 7.63973 28.9533 8.54729 29.024 10.2195C29.1 12.0289 29.1173 12.572 29.1173 17.1513C29.1173 21.7305 29.0973 22.2751 29.0187 24.0831C28.9373 25.7553 28.6773 26.6628 28.4573 27.2659C28.1587 28.0691 27.8187 28.638 27.2587 29.2412C26.7 29.8399 26.16 30.2116 25.4187 30.5217C24.8587 30.7561 23.9987 31.0362 22.4387 31.112C20.74 31.1935 20.24 31.212 15.96 31.212C11.6787 31.212 11.1787 31.1906 9.48133 31.1063C7.92 31.0191 7.06 30.7404 6.5 30.5045C5.74133 30.1845 5.22 29.82 4.66133 29.2197C4.1 28.6208 3.74133 28.042 3.46133 27.2474C3.24133 26.6471 2.98267 25.7253 2.90133 24.0531C2.84133 22.2522 2.82 21.6962 2.82 17.1298C2.82 12.562 2.84133 12.0046 2.90133 10.1823C2.98267 8.51014 3.24133 7.58971 3.46133 6.98943C3.74133 6.17477 4.1 5.61737 4.66133 5.01567C5.22 4.41681 5.74133 4.03092 6.5 3.73221C7.06 3.49496 7.90133 3.21626 9.46133 3.13051C11.1613 3.06619 11.6613 3.04475 15.94 3.04475L16 3.08763ZM16 8.34434C11.46 8.34434 7.784 12.289 7.784 17.1513C7.784 22.0178 11.464 25.9582 16 25.9582C20.54 25.9582 24.216 22.0135 24.216 17.1513C24.216 12.2847 20.536 8.34434 16 8.34434ZM16 22.8682C13.0533 22.8682 10.6667 20.3099 10.6667 17.1513C10.6667 13.9926 13.0533 11.4344 16 11.4344C18.9467 11.4344 21.3333 13.9926 21.3333 17.1513C21.3333 20.3099 18.9467 22.8682 16 22.8682ZM26.4613 7.99704C26.4613 9.13328 25.6 10.0551 24.5413 10.0551C23.4813 10.0551 22.6213 9.13185 22.6213 7.99704C22.6213 6.86223 23.4827 5.94037 24.5413 5.94037C25.5987 5.93894 26.4613 6.86223 26.4613 7.99704Z" fill="white"/>
</svg>
