<svg xmlns="http://www.w3.org/2000/svg" width="32" height="25" fill="none"><path fill="#fff" d="M31.33 3.884a4.564 4.564 0 0 0-1.033-1.987A3.955 3.955 0 0 0 28.5.743C26.007 0 16 0 16 0S5.993 0 3.497.743a3.957 3.957 0 0 0-1.794 1.154A4.566 4.566 0 0 0 .669 3.884C0 6.655 0 12.434 0 12.434s0 5.78.67 8.551c.18.751.537 1.437 1.033 1.988A3.956 3.956 0 0 0 3.5 24.127c2.494.742 12.501.742 12.501.742s10.007 0 12.503-.742a3.955 3.955 0 0 0 1.795-1.154 4.564 4.564 0 0 0 1.034-1.988c.668-2.77.668-8.55.668-8.55s0-5.78-.67-8.55ZM12.728 17.682V7.188l8.364 5.247-8.364 5.247Z"/></svg>