<svg xmlns="http://www.w3.org/2000/svg" width="32" height="35" fill="none"><path fill="#fff" d="M16 0c-4.347 0-4.89.022-6.596.103C7.7.19 6.54.476 5.52.901c-1.052.437-1.945 1.025-2.835 1.978A8.453 8.453 0 0 0 .84 5.918C.444 7.01.175 8.254.096 10.08.016 11.91 0 12.49 0 17.15s.02 5.241.096 7.07c.08 1.826.348 3.07.744 4.164.408 1.126.956 2.085 1.845 3.039.89.952 1.782 1.542 2.835 1.978 1.021.423 2.181.713 3.884.797 1.707.086 2.25.103 6.596.103 4.347 0 4.89-.021 6.596-.103 1.703-.086 2.864-.374 3.884-.797 1.05-.438 1.945-1.026 2.835-1.978a8.46 8.46 0 0 0 1.845-3.039c.395-1.093.665-2.338.744-4.163.08-1.83.096-2.411.096-7.07 0-4.66-.02-5.242-.096-7.071-.08-1.825-.35-3.072-.744-4.163-.408-1.128-.957-2.086-1.845-3.039-.89-.953-1.78-1.542-2.835-1.978-1.02-.425-2.181-.713-3.884-.798C20.889.018 20.346 0 16 0Zm0 3.088c4.27 0 4.78.022 6.467.101 1.56.079 2.406.356 2.969.593.75.31 1.28.682 1.843 1.28.558.601.905 1.171 1.194 1.975.219.603.48 1.51.551 3.183.076 1.809.093 2.352.093 6.931 0 4.58-.02 5.124-.098 6.932-.082 1.672-.342 2.58-.562 3.183-.298.803-.638 1.372-1.198 1.975a4.973 4.973 0 0 1-1.84 1.28c-.56.235-1.42.515-2.98.591-1.699.082-2.199.1-6.479.1-4.281 0-4.781-.021-6.479-.106-1.561-.087-2.421-.366-2.981-.602a4.935 4.935 0 0 1-1.839-1.284 5.258 5.258 0 0 1-1.2-1.973c-.22-.6-.478-1.522-.56-3.194-.06-1.8-.081-2.357-.081-6.923 0-4.568.021-5.125.081-6.948.082-1.672.34-2.592.56-3.193.28-.814.639-1.372 1.2-1.973.559-.6 1.08-.985 1.839-1.284.56-.237 1.401-.516 2.961-.601 1.7-.065 2.2-.086 6.479-.086l.06.043Zm0 5.256c-4.54 0-8.216 3.945-8.216 8.807 0 4.867 3.68 8.807 8.216 8.807 4.54 0 8.216-3.944 8.216-8.807 0-4.866-3.68-8.807-8.216-8.807Zm0 14.524c-2.947 0-5.333-2.558-5.333-5.717 0-3.158 2.386-5.717 5.333-5.717s5.333 2.559 5.333 5.717c0 3.159-2.386 5.717-5.333 5.717ZM26.461 7.997c0 1.136-.861 2.058-1.92 2.058-1.06 0-1.92-.923-1.92-2.058 0-1.135.862-2.057 1.92-2.057 1.058-.001 1.92.922 1.92 2.057Z"/></svg>