<svg width="32" height="25" viewBox="0 0 32 25" fill="none" xmlns="http://www.w3.org/2000/svg">
<path d="M31.3307 3.88448C31.1499 3.13338 30.7934 2.44785 30.2968 1.89654C29.8003 1.34524 29.1811 0.947501 28.5013 0.743173C26.0067 0.000488084 16 0.000488281 16 0.000488281C16 0.000488281 5.99333 0.000488084 3.49733 0.743173C2.81788 0.947865 2.19906 1.34575 1.70277 1.89701C1.20648 2.44828 0.850122 3.13362 0.669333 3.88448C0 6.65518 0 12.4348 0 12.4348C0 12.4348 0 18.2145 0.669333 20.9852C0.850115 21.7363 1.20663 22.4218 1.70319 22.9731C2.19974 23.5244 2.8189 23.9221 3.49867 24.1265C5.99333 24.8691 16 24.8691 16 24.8691C16 24.8691 26.0067 24.8691 28.5027 24.1265C29.1825 23.9223 29.8017 23.5246 30.2983 22.9733C30.7949 22.4219 31.1513 21.7363 31.332 20.9852C32 18.2145 32 12.4348 32 12.4348C32 12.4348 32 6.65518 31.3307 3.88448ZM12.7267 17.6821V7.18759L21.0907 12.4348L12.7267 17.6821Z" fill="white"/>
</svg>
