<svg xmlns="http://www.w3.org/2000/svg" width="16" height="17" fill="none"><path fill="#9C9C9C" d="M1.333 4.459c.366 0 .666-.3.666-.666v-.667a.67.67 0 0 1 .667-.667h.667c.366 0 .666-.3.666-.666 0-.367-.3-.667-.666-.667h-.667c-1.107 0-2 .893-2 2v.667c0 .366.3.666.667.666Zm2 10h-.667a.669.669 0 0 1-.667-.666v-.667a.668.668 0 0 0-1.333 0v.667c0 1.107.893 2 2 2h.667a.668.668 0 0 0 0-1.333v-.001Zm10-13.333h-.666c-.367 0-.667.3-.667.667 0 .366.3.666.667.666h.666c.367 0 .667.3.667.667v.667c0 .366.3.666.667.666.366 0 .666-.3.666-.666v-.667c0-1.107-.893-2-2-2Zm1.334 11.333c-.367 0-.667.3-.667.667v.667c0 .367-.3.667-.667.667h-.666c-.367 0-.667.3-.667.665 0 .367.3.668.667.668h.666c1.107 0 2-.893 2-2v-.667c0-.367-.3-.666-.666-.666v-.002Zm-2.002-2.086V6.546c0-.48-.253-.92-.666-1.153l-3.334-1.92a1.317 1.317 0 0 0-1.333 0L3.999 5.385c-.414.24-.667.68-.667 1.16v3.826c0 .48.253.92.667 1.153l3.333 1.92a1.317 1.317 0 0 0 1.333 0L12 11.525a1.32 1.32 0 0 0 .666-1.152h-.001Zm-5.333 1.533-2.667-1.534V7.287l2.667 1.553v3.066Zm.667-4.22-2.64-1.54 2.64-1.52 2.64 1.52-2.64 1.54Zm3.333 2.687-2.667 1.533V8.838l2.667-1.553v3.087Z"/></svg>