<svg xmlns="http://www.w3.org/2000/svg" width="32" height="32" fill="none"><g clip-path="url(#a)"><circle cx="16" cy="16" r="16" fill="#fff"/><path fill="url(#b)" d="M23.583 13.375h-.888L20.853 8.5a2.103 2.103 0 0 0-.793-.995 2.236 2.236 0 0 0-1.243-.38h-1.734c-.595 0-1.083.469-1.083 1.042 0 .573.488 1.041 1.083 1.041h1.734l1.581 4.167h-5.21l-.39-1.042h.097c.596 0 1.083-.468 1.083-1.041s-.487-1.042-1.083-1.042h-3.228c-.596 0-1.084.469-1.084 1.042 0 .573.488 1.041 1.084 1.041h.812l1.972 5.209h-.726c-.477-2.323-2.502-4.042-5.037-4.157C5.654 13.24 3 15.667 3 18.583c0 2.917 2.383 5.209 5.417 5.209 2.665 0 4.82-1.76 5.308-4.167h4.55c.477 2.323 2.503 4.042 5.038 4.156C26.346 23.917 29 21.5 29 18.573c0-2.906-2.383-5.198-5.417-5.198ZM9.5 19.625h1.972c-.455 1.281-1.734 2.167-3.272 2.073-1.614-.094-2.957-1.406-3.033-2.969-.076-1.823 1.376-3.27 3.25-3.27 1.44 0 2.621.864 3.055 2.083H9.5c-.596 0-1.083.468-1.083 1.041s.487 1.042 1.083 1.042Zm8.775-2.083h-1.517l-.79-2.084h3.282a4.843 4.843 0 0 0-.975 2.084Zm5.178 4.166c-1.668-.062-3.076-1.427-3.12-3.041a3.057 3.057 0 0 1 1.138-2.459l.671 1.771c.206.542.824.823 1.387.625.564-.198.856-.791.65-1.333l-.682-1.802.01-.01c.435-.015.868.056 1.273.207.405.15.774.38 1.085.671.31.292.557.642.723 1.028.167.386.25.8.245 1.218 0 1.792-1.495 3.188-3.38 3.125Z"/></g><defs><linearGradient id="b" x1="16" x2="16" y1="7.125" y2="23.792" gradientUnits="userSpaceOnUse"><stop stop-color="#FFB60B"/><stop offset="1" stop-color="#E59317"/></linearGradient><clipPath id="a"><path fill="#fff" d="M0 0h32v32H0z"/></clipPath></defs></svg>